<?xml version="1.0" standalone="no"?>
<!DOCTYPE svg PUBLIC "-//W3C//DTD SVG 20010904//EN"
 "http://www.w3.org/TR/2001/REC-SVG-20010904/DTD/svg10.dtd">
<svg version="1.0" xmlns="http://www.w3.org/2000/svg"
 width="537.000000pt" height="601.000000pt" viewBox="0 0 537.000000 601.000000"
 preserveAspectRatio="xMidYMid meet">

<g transform="translate(0.000000,601.000000) scale(0.100000,-0.100000)"
fill="#000000" stroke="none">
<path d="M2385 5945 c-233 -29 -334 -49 -480 -97 -311 -101 -505 -196 -735
-358 -494 -349 -834 -817 -1024 -1405 -15 -49 -29 -110 -84 -390 l-25 -130 -4
-1767 c-2 -973 0 -1768 4 -1768 4 0 157 -1 339 -2 l330 -1 300 303 c164 166
305 308 311 315 32 33 15 35 -301 35 -277 0 -315 2 -320 16 -3 9 -6 624 -6
1368 0 1467 0 1468 56 1703 31 130 69 256 89 292 8 14 28 57 44 94 103 233
324 521 529 689 181 149 425 283 647 357 348 115 780 127 1145 30 97 -26 305
-109 400 -161 247 -134 470 -324 642 -548 135 -175 245 -376 293 -535 15 -50
40 -129 56 -176 54 -167 52 -127 56 -1681 l4 -1448 -326 0 -325 0 0 1328 c0
1319 -4 1480 -35 1615 -15 67 -92 268 -122 322 -91 163 -249 344 -395 451
-116 85 -280 161 -435 201 -136 36 -141 36 -338 37 -185 0 -208 -2 -307 -27
-131 -33 -198 -57 -285 -105 -38 -20 -80 -43 -94 -50 -53 -28 -167 -119 -239
-191 -210 -211 -339 -466 -379 -751 -7 -50 -12 -537 -14 -1453 l-2 -1377 331
0 332 0 273 277 c151 153 295 299 321 326 40 42 49 47 67 38 11 -6 162 -153
335 -326 l316 -315 331 0 331 0 323 -327 322 -328 337 0 337 0 1 1745 c0 960
-3 1781 -6 1825 -10 108 -34 250 -51 305 -8 25 -28 101 -46 170 -17 69 -49
162 -70 208 -21 46 -39 90 -39 97 0 20 -111 231 -178 340 -251 405 -631 753
-1052 965 -110 55 -220 100 -395 160 -215 73 -464 111 -765 116 -141 2 -253
-2 -325 -11z m495 -2004 c52 -17 115 -43 140 -59 156 -100 275 -278 300 -448
10 -71 15 -2050 5 -2076 -5 -12 -111 -14 -651 -12 -355 1 -649 5 -652 9 -4 4
-7 466 -7 1028 0 831 3 1032 14 1077 22 89 84 210 141 278 182 213 444 288
710 203z"/>
</g>
</svg>
